# xmcd CD database file
#
# Track frame offsets:
#	150
#	18164
#	39289
#	57303
#
# Disc length: 1042 seconds
#
# Revision: 7
# Processed by: cddbd v1.5.2PL0 Copyright (c) Steve Scherf et al.
# Submitted via: CDex 1.70beta3
#
DISCID=25041004
DTITLE=平野綾 - 明日のプリズム
DYEAR=2006
DGENRE=Seiyu
TTITLE0=明日のプリズム
TTITLE1=ヨロコビの歌
TTITLE2=明日のプリズム(off vocal)
TTITLE3=ヨロコビの歌(off vocal)
EXTD=YEAR: 2006
EXTT0=
EXTT1=
EXTT2=
EXTT3=
PLAYORDER=
